<?xml version="1.0" standalone="no"?><!DOCTYPE svg PUBLIC "-//W3C//DTD SVG 1.1//EN" "http://www.w3.org/Graphics/SVG/1.1/DTD/svg11.dtd"><svg t="1612064713249" class="icon" viewBox="0 0 1024 1024" version="1.1" xmlns="http://www.w3.org/2000/svg" p-id="3791" xmlns:xlink="http://www.w3.org/1999/xlink" width="200" height="200"><defs><style type="text/css"></style></defs><path d="M256 928.2h-62.5c-52.9 0-96-43.1-96-96V482.1c0-52.9 43.1-96 96-96H256c52.9 0 96 43.1 96 96v350.1c0 53-43.1 96-96 96z m-62.5-478.1c-17.6 0-32 14.4-32 32v350.1c0 17.6 14.4 32 32 32H256c17.6 0 32-14.4 32-32V482.1c0-17.6-14.4-32-32-32h-62.5zM542.2 928.2h-62.5c-52.9 0-96-43.1-96-96V191.8c0-52.9 43.1-96 96-96h62.5c52.9 0 96 43.1 96 96v640.5c0 52.9-43 95.9-96 95.9z m-62.4-768.4c-17.6 0-32 14.4-32 32v640.5c0 17.6 14.4 32 32 32h62.5c17.6 0 32-14.4 32-32V191.8c0-17.6-14.4-32-32-32h-62.5zM830.5 928.2H768c-52.9 0-96-43.1-96-96v-479c0-52.9 43.1-96 96-96h62.5c52.9 0 96 43.1 96 96v479c0 53-43.1 96-96 96zM768 321.3c-17.6 0-32 14.4-32 32v479c0 17.6 14.4 32 32 32h62.5c17.6 0 32-14.4 32-32v-479c0-17.6-14.4-32-32-32H768z" fill="#595959" p-id="3792"></path></svg>