<?xml version="1.0" standalone="no"?><!DOCTYPE svg PUBLIC "-//W3C//DTD SVG 1.1//EN" "http://www.w3.org/Graphics/SVG/1.1/DTD/svg11.dtd"><svg t="1612087001273" class="icon" viewBox="0 0 1024 1024" version="1.1" xmlns="http://www.w3.org/2000/svg" p-id="4574" xmlns:xlink="http://www.w3.org/1999/xlink" width="200" height="200"><defs><style type="text/css"></style></defs><path d="M911.246222 167.708444H89.770667c-12.515556 0-22.755556 10.24-22.755556 22.755556s10.24 22.755556 22.755556 22.755556h57.344v493.568a40.391111 40.391111 0 0 0 40.391111 40.391111h261.461333l-101.489778 135.281777c-7.509333 10.012444-5.461333 24.348444 4.551111 31.857778a22.7328 22.7328 0 0 0 31.857778-4.551111l113.550222-151.324444c2.503111-3.413333 3.868444-7.281778 4.323556-11.264H523.377778c0.341333 2.958222 1.251556 5.916444 2.730666 8.647111l84.536889 151.324444c4.209778 7.509333 11.946667 11.605333 19.911111 11.605334 3.754667 0 7.623111-0.910222 11.036445-2.844445 10.922667-6.144 14.904889-20.024889 8.760889-30.947555l-77.027556-137.898667h242.119111a40.391111 40.391111 0 0 0 40.391111-40.391111V213.219556h55.182223c12.515556 0 22.755556-10.24 22.755555-22.755556s-10.012444-22.755556-22.528-22.755556z m-100.693333 533.959112h-617.813333V213.219556h617.813333v488.448z" p-id="4575"></path><path d="M303.104 576.170667c4.437333 4.323556 10.24 6.599111 15.928889 6.599111 5.916444 0 11.719111-2.275556 16.156444-6.826667l128.568889-130.503111 64.056889 64.056889c11.377778 11.377778 31.175111 11.377778 42.552889 0L708.835556 371.029333c8.874667-8.874667 8.874667-23.324444 0-32.199111-8.874667-8.874667-23.324444-8.874667-32.199112 0L549.319111 466.375111l-63.829333-63.829333c-5.802667-5.802667-13.312-9.216-21.731556-8.988445-8.192 0-15.928889 3.299556-21.617778 9.102223L302.876444 543.971556c-8.760889 8.988444-8.647111 23.324444 0.227556 32.199111z" p-id="4576"></path></svg>